<svg width="84" height="42" viewBox="0 0 84 42" fill="none" xmlns="http://www.w3.org/2000/svg">
<path d="M11.664 36.576C9.296 36.576 7.232 36.032 5.472 34.944C3.744 33.856 2.4 32.32 1.44 30.336C0.48 28.32 0 25.968 0 23.28C0 20.592 0.48 18.256 1.44 16.272C2.4 14.288 3.744 12.752 5.472 11.664C7.232 10.544 9.296 9.984 11.664 9.984C13.616 9.984 15.344 10.336 16.848 11.04C18.384 11.712 19.632 12.704 20.592 14.016C21.552 15.328 22.176 16.928 22.464 18.816L18.24 19.104C17.952 17.408 17.216 16.112 16.032 15.216C14.848 14.288 13.392 13.824 11.664 13.824C9.328 13.824 7.504 14.672 6.192 16.368C4.88 18.032 4.224 20.336 4.224 23.28C4.224 26.224 4.88 28.544 6.192 30.24C7.504 31.904 9.328 32.736 11.664 32.736C13.392 32.736 14.848 32.256 16.032 31.296C17.216 30.336 17.952 28.896 18.24 26.976L22.464 27.264C22.176 29.152 21.552 30.8 20.592 32.208C19.632 33.584 18.384 34.656 16.848 35.424C15.344 36.192 13.616 36.576 11.664 36.576Z" fill="white"/>
<path d="M25.5424 41.28L39.7024 0H43.5424L29.3824 41.28H25.5424Z" fill="#74C0FC"/>
<path d="M53.691 36L45.819 10.56H50.235L56.187 31.776L62.235 10.56H66.555L72.603 31.776L78.603 10.56H83.019L75.147 36H70.059L64.395 16.656L58.731 36H53.691Z" fill="white"/>
</svg>
